<svg id="Ebene_1" xmlns="http://www.w3.org/2000/svg" viewBox="0 0 2227.7 306.6"><style>.st0{fill:#e2001a}.st1{fill:#fff}</style><path d="M559.2 84.3h40c57.7 0 89.6 22 89.6 67.5 0 50-25.5 69.2-89.6 70.3h-40V84.3zm-84.6 193.8h139.6c98.7 0 159.1-44.1 159.1-125.9 0-77.3-59.6-123.8-159.1-123.8H474.6v249.7zM757.8 278h86.8l20.5-44.8h113.2l20 44.8h88.2L965.1 28.3h-85.9L757.8 278zM921.5 97.6h.9l35.9 87.4h-73.7l36.9-87.4zM1704.6 278.1h263.2v-56h-178.7v-47.6h159.2v-50.3h-159.2V80.5h174.2V28.3h-258.7zM1991.7 278.1h236v-56h-151.4V28.3h-84.6zM1370.2 28.3h-84.6v150.4c0 32.2-15.5 48.6-56.8 48.6-41.4 0-56.8-16.4-56.8-48.6V28.3h-84.6v146.5c0 72.4 43.2 108.4 141.4 108.4s141.4-36 141.4-108.4V28.3zM1675.8 28.4h-278.2v55.9h96.8v193.8h84.6V84.3h96.8z"/><path class="st0" d="M0 153.3C0 68.6 68.6 0 153.3 0 238 0 306.6 68.6 306.6 153.3c0 84.7-68.6 153.3-153.3 153.3C68.6 306.6 0 238 0 153.3"/><path class="st1" d="M153.3 28.4c69 0 124.9 55.9 124.9 124.9s-55.9 124.9-124.9 124.9V28.4z"/><path class="st0" d="M104.8 153.3c0-26.8 21.7-48.5 48.6-48.5 26.8 0 48.6 21.7 48.6 48.5s-21.7 48.6-48.6 48.6c-26.9 0-48.6-21.7-48.6-48.6"/><path class="st1" d="M104.8 153.3c0-26.8 21.7-48.5 48.6-48.5v97.1c-26.9 0-48.6-21.7-48.6-48.6"/></svg>