<svg width="1000" height="696" viewBox="0 0 1000 696" fill="none" xmlns="http://www.w3.org/2000/svg">
<g clip-path="url(#clip0)">
<path d="M252.399 347.383C248.584 347.383 245.492 350.475 245.492 354.29C245.492 358.104 248.584 361.196 252.399 361.196C256.213 361.196 259.306 358.104 259.306 354.29C259.306 350.475 256.214 347.383 252.399 347.383ZM252.399 366.982C250.782 366.982 249.472 368.294 249.472 369.91C249.472 371.527 250.783 372.838 252.399 372.838C254.016 372.838 255.327 371.527 255.327 369.91C255.327 368.294 254.016 366.982 252.399 366.982ZM273.214 364.132L289.981 380.9C293.89 375.39 296.616 368.983 297.793 362.048H274.077C273.822 362.759 273.535 363.455 273.214 364.132ZM260.158 375.97V399.683C267.093 398.506 273.497 395.777 279.008 391.87L262.24 375.102C261.563 375.423 260.869 375.715 260.158 375.97ZM273.212 344.448C273.533 345.125 273.823 345.819 274.078 346.531H297.792C296.615 339.596 293.887 333.19 289.979 327.68L273.212 344.448ZM242.559 333.478C243.236 333.157 243.93 332.865 244.641 332.61V308.897C237.707 310.074 231.302 312.802 225.791 316.71L242.559 333.478ZM225.791 391.87C231.301 395.778 237.707 398.506 244.642 399.683V375.97C243.93 375.715 243.236 375.424 242.558 375.103L225.791 391.87ZM265.093 354.288C265.093 355.905 266.404 357.216 268.021 357.216C269.638 357.216 270.949 355.905 270.949 354.288C270.949 352.672 269.638 351.361 268.021 351.361C266.404 351.361 265.093 352.672 265.093 354.288ZM239.705 354.288C239.705 352.672 238.394 351.361 236.777 351.361C235.16 351.361 233.849 352.672 233.849 354.288C233.849 355.905 235.16 357.216 236.777 357.216C238.394 357.216 239.705 355.905 239.705 354.288ZM279.008 316.709C273.498 312.801 267.092 310.073 260.158 308.896V332.609C260.869 332.864 261.564 333.155 262.241 333.475L279.008 316.709ZM252.399 341.595C254.016 341.595 255.327 340.283 255.327 338.667C255.327 337.05 254.016 335.739 252.399 335.739C250.782 335.739 249.472 337.05 249.472 338.667C249.472 340.283 250.782 341.595 252.399 341.595ZM252.399 278.891C210.757 278.891 177 312.649 177 354.29C177 395.931 210.757 429.688 252.399 429.688C294.04 429.688 327.797 395.93 327.797 354.29C327.798 312.648 294.041 278.891 252.399 278.891ZM252.399 408.146C222.655 408.146 198.543 384.034 198.543 354.291C198.543 324.547 222.655 300.435 252.399 300.435C282.143 300.435 306.254 324.547 306.254 354.291C306.255 384.033 282.143 408.146 252.399 408.146ZM230.72 362.048H207.006C208.183 368.983 210.91 375.389 214.819 380.899L231.587 364.131C231.265 363.453 230.975 362.759 230.72 362.048ZM231.584 344.446L214.817 327.679C210.908 333.189 208.182 339.596 207.005 346.531H230.72C230.977 345.819 231.264 345.123 231.584 344.446ZM796.342 347.383C792.528 347.383 789.435 350.475 789.435 354.29C789.435 358.104 792.528 361.196 796.342 361.196C800.156 361.196 803.249 358.104 803.249 354.29C803.249 350.475 800.156 347.383 796.342 347.383ZM804.1 375.97V399.683C811.035 398.506 817.441 395.779 822.951 391.87L806.184 375.102C805.506 375.424 804.812 375.715 804.1 375.97ZM822.949 316.71C817.439 312.802 811.034 310.073 804.099 308.897V332.61C804.811 332.865 805.504 333.157 806.181 333.478L822.949 316.71ZM817.155 364.131L833.922 380.899C837.831 375.389 840.559 368.983 841.735 362.048H818.021C817.767 362.759 817.476 363.453 817.155 364.131ZM940.652 307.772C937.976 300.583 928.318 303.215 925.422 298.633C942.012 274.808 922.979 230.543 924.659 232.614C918.401 222.862 904.261 217.628 893.133 212.731C877.574 205.884 860.692 198.358 843.785 192.627C834.492 189.477 825.918 188.438 816.369 185.315C805.416 181.734 795.6 176.654 794.847 176.654C795.118 176.902 795.382 177.145 795.657 177.395C794.927 176.876 794.688 176.653 794.847 176.654C708.016 92.743 673.4 82.389 639.693 74.435C638.865 74.24 598.266 71.998 598.266 71.998C598.266 71.998 238.129 72.113 135.25 72.113C129.217 73.495 122.779 77.528 118.191 80.527C109.32 86.327 108.183 97.09 104.179 107.942C95.8991 130.382 74.3971 189.373 74.3271 302.287C74.3251 305.044 66.1261 302.667 64.5791 305.333C40.9691 346.04 81.3961 365.036 101.133 365.038C112.403 365.038 171.803 374.177 171.803 374.177H175.294C173.813 368.123 173.022 361.8 173.022 355.29C173.022 311.549 208.481 276.09 252.222 276.09C295.963 276.09 331.422 311.549 331.422 355.29C331.422 361.8 330.631 368.123 329.151 374.177H720.114C718.522 367.943 717.675 361.411 717.675 354.681C717.675 311.277 752.862 276.09 796.266 276.09C839.671 276.09 874.857 311.277 874.857 354.681C874.857 361.411 874.009 367.943 872.419 374.177H895.571C895.571 374.177 905.943 369.029 908.365 365.648C910.674 362.424 910.199 359.085 913.848 357.119C930.225 348.289 941.856 348.319 941.872 322.392C941.874 317.614 942.661 310.745 940.652 307.772ZM704.551 161.925C701.996 165.806 696.747 164.339 696.63 191.777C657.034 191.372 579.049 190.559 579.049 190.559C579.049 190.559 578.817 97.733 578.46 96.124C578.453 96.126 578.446 96.1271 578.439 96.1281C578.446 96.0921 578.453 96.094 578.46 96.124C595.481 93.282 627.431 92.069 649.72 97.346C707.638 114.151 728.977 149.835 741.504 165.103C735.514 165.011 708.901 160.9 704.551 161.925ZM786.5 333.476C787.178 333.156 787.872 332.865 788.583 332.61V308.897C781.648 310.074 775.243 312.801 769.733 316.71L786.5 333.476ZM817.156 344.446C817.477 345.123 817.764 345.819 818.019 346.531H841.735C840.558 339.596 837.832 333.189 833.922 327.679L817.156 344.446ZM796.342 278.891C754.7 278.891 720.944 312.649 720.944 354.29C720.944 395.931 754.701 429.688 796.342 429.688C837.983 429.688 871.74 395.93 871.74 354.29C871.74 312.648 837.983 278.891 796.342 278.891ZM796.342 408.146C766.598 408.146 742.486 384.034 742.486 354.291C742.486 324.547 766.598 300.435 796.342 300.435C826.086 300.435 850.198 324.547 850.198 354.291C850.198 384.033 826.086 408.146 796.342 408.146ZM796.342 366.982C794.725 366.982 793.414 368.294 793.414 369.91C793.414 371.527 794.725 372.838 796.342 372.838C797.959 372.838 799.27 371.527 799.27 369.91C799.27 368.294 797.959 366.982 796.342 366.982ZM783.647 354.288C783.647 352.672 782.336 351.361 780.719 351.361C779.103 351.361 777.791 352.672 777.791 354.288C777.791 355.905 779.103 357.216 780.719 357.216C782.337 357.216 783.647 355.905 783.647 354.288ZM775.528 344.448L758.761 327.68C754.853 333.19 752.124 339.596 750.948 346.531H774.662C774.917 345.819 775.208 345.125 775.528 344.448ZM809.036 354.288C809.036 355.905 810.347 357.216 811.964 357.216C813.58 357.216 814.892 355.905 814.892 354.288C814.892 352.672 813.58 351.361 811.964 351.361C810.347 351.361 809.036 352.672 809.036 354.288ZM796.342 341.595C797.959 341.595 799.27 340.283 799.27 338.667C799.27 337.05 797.959 335.739 796.342 335.739C794.725 335.739 793.414 337.05 793.414 338.667C793.414 340.283 794.725 341.595 796.342 341.595ZM769.733 391.869C775.244 395.776 781.648 398.506 788.583 399.682V375.97C787.872 375.715 787.179 375.423 786.501 375.102L769.733 391.869ZM774.664 362.048H750.948C752.125 368.983 754.851 375.39 758.76 380.9L775.528 364.132C775.206 363.455 774.919 362.759 774.664 362.048Z" fill="#323232"/>
<path d="M175.075 633.255C146.527 636.305 120.297 637.83 96.3849 637.83C84.4289 637.83 75.6449 635.024 70.0329 629.412C64.4209 623.8 61.6149 615.016 61.6149 603.06V544.5C61.6149 531.69 64.4819 522.418 70.2159 516.684C76.0719 510.828 85.4049 507.9 98.2149 507.9H164.095V533.52H105.535C98.2149 533.52 94.5549 537.18 94.5549 544.5V603.06C94.5549 605.866 95.3479 608.123 96.9339 609.831C98.6419 611.417 100.899 612.21 103.705 612.21C117.735 612.21 130.545 611.905 142.135 611.295V584.76H118.345V562.8H175.075V633.255ZM231.841 542.67V636H199.816V567.375H186.091V542.67H231.841ZM199.816 506.07H231.841V531.69H199.816V506.07ZM318.823 636L316.993 626.85C311.259 630.632 305.342 633.438 299.242 635.268C293.264 636.976 288.201 637.83 284.053 637.83H275.818C267.522 637.83 260.873 635.329 255.871 630.327C250.869 625.325 248.368 618.676 248.368 610.38V568.29C248.368 559.14 250.93 552.003 256.054 546.879C261.3 541.633 268.498 539.01 277.648 539.01H315.163V507.9H347.188V636H318.823ZM293.203 611.295C299.669 611.295 306.989 610.075 315.163 607.635V563.715H287.713C282.833 563.715 280.393 566.155 280.393 571.035V604.89C280.393 606.72 281.003 608.245 282.223 609.465C283.443 610.685 284.968 611.295 286.798 611.295H293.203ZM421.281 565.545C413.595 565.545 405.665 567.375 397.491 571.035V636H365.466V539.01H393.831L395.661 550.905C406.153 541.755 417.133 537.18 428.601 537.18H436.836V565.545H421.281ZM544.885 608.55C544.885 617.7 542.262 624.898 537.016 630.144C531.892 635.268 524.755 637.83 515.605 637.83H473.515C464.365 637.83 457.167 635.268 451.921 630.144C446.797 624.898 444.235 617.7 444.235 608.55V566.46C444.235 557.31 446.797 550.173 451.921 545.049C457.167 539.803 464.365 537.18 473.515 537.18H515.605C524.755 537.18 531.892 539.803 537.016 545.049C542.262 550.173 544.885 557.31 544.885 566.46V608.55ZM512.86 569.205C512.86 564.325 510.42 561.885 505.54 561.885H483.58C478.7 561.885 476.26 564.325 476.26 569.205V605.805C476.26 610.685 478.7 613.125 483.58 613.125H505.54C510.42 613.125 512.86 610.685 512.86 605.805V569.205ZM626.299 568.29C626.299 566.46 625.689 564.935 624.469 563.715C623.249 562.495 621.724 561.885 619.894 561.885H615.319C610.195 561.885 605.742 562.129 601.96 562.617C598.3 563.105 595.433 563.471 593.359 563.715V611.295H618.979C623.859 611.295 626.299 608.855 626.299 603.975V568.29ZM593.359 540.84C605.193 538.4 615.563 537.18 624.469 537.18H630.874C639.17 537.18 645.819 539.681 650.821 544.683C655.823 549.685 658.324 556.334 658.324 564.63V606.72C658.324 615.87 655.701 623.068 650.455 628.314C645.331 633.438 638.194 636 629.044 636H561.334V507.9H593.359V540.84ZM773.635 608.55C773.635 617.7 771.012 624.898 765.766 630.144C760.642 635.268 753.505 637.83 744.355 637.83H702.265C693.115 637.83 685.917 635.268 680.671 630.144C675.547 624.898 672.985 617.7 672.985 608.55V566.46C672.985 557.31 675.547 550.173 680.671 545.049C685.917 539.803 693.115 537.18 702.265 537.18H744.355C753.505 537.18 760.642 539.803 765.766 545.049C771.012 550.173 773.635 557.31 773.635 566.46V608.55ZM741.61 569.205C741.61 564.325 739.17 561.885 734.29 561.885H712.33C707.45 561.885 705.01 564.325 705.01 569.205V605.805C705.01 610.685 707.45 613.125 712.33 613.125H734.29C739.17 613.125 741.61 610.685 741.61 605.805V569.205ZM845.899 565.545C838.213 565.545 830.283 567.375 822.109 571.035V636H790.084V539.01H818.449L820.279 550.905C830.771 541.755 841.751 537.18 853.219 537.18H861.454V565.545H845.899ZM941.966 636C930.132 637.22 918.542 637.83 907.196 637.83C898.9 637.83 892.251 635.329 887.249 630.327C882.247 625.325 879.746 618.676 879.746 610.38V563.715H868.766V539.01H879.746L883.406 517.05H911.771V539.01H934.646V563.715H911.771V605.805C911.771 607.635 912.381 609.16 913.601 610.38C914.821 611.6 916.346 612.21 918.176 612.21H941.966V636Z" fill="#323232"/>
</g>
<defs>
<clipPath id="clip0">
<rect width="1000" height="696" fill="white"/>
</clipPath>
</defs>
</svg>
